<svg xmlns="http://www.w3.org/2000/svg" viewBox="0 0 1280 1280" fill="none">
<path d="M0 0 C1.25 -0 2.51 -0 3.8 -0 C5.09 -0 6.39 0 7.73 0.01 C9.66 0 9.66 0 11.63 -0 C17.96 0 24.09 0.13 30.35 1.13 C30.68 2.12 31.01 3.11 31.35 4.13 C31.97 4.23 32.59 4.33 33.22 4.43 C39.42 5.52 44.72 7.33 50.35 10.13 C50.35 10.79 50.35 11.45 50.35 12.13 C51.09 12.26 51.84 12.38 52.6 12.51 C58 13.74 60.5 16.19 64.35 20.13 C65.59 21.23 66.84 22.31 68.1 23.38 C76.56 30.77 84.7 38.19 88.35 49.13 C89.01 49.46 89.67 49.79 90.35 50.13 C94.11 57.24 96.16 64.11 96.35 72.13 C97.01 72.13 97.67 72.13 98.35 72.13 C99.1 76.13 99.47 79.9 99.45 83.97 C99.45 85.03 99.44 86.1 99.44 87.19 C99.43 88.29 99.42 89.38 99.41 90.51 C99.41 91.63 99.41 92.74 99.4 93.89 C99.39 96.64 99.37 99.39 99.35 102.13 C98.69 102.13 98.03 102.13 97.35 102.13 C97.4 103.86 97.4 103.86 97.44 105.61 C97.44 110.02 96.79 114.13 95.91 118.45 C95.71 119.5 95.71 119.5 95.51 120.57 C94.93 123.5 94.3 126.3 93.35 129.13 C92.69 129.13 92.03 129.13 91.35 129.13 C91.17 129.98 91.17 129.98 90.99 130.84 C87.15 144.65 76.25 157.24 66.35 167.13 C65.57 168.25 64.8 169.37 64.04 170.51 C61.6 174.05 58.67 176.57 55.39 179.33 C52.73 181.68 50.48 184.27 48.19 186.97 C46.16 189.36 44.08 191.68 41.98 194.01 C41.22 194.85 40.46 195.69 39.67 196.56 C38.91 197.41 38.14 198.26 37.35 199.13 C35.85 200.8 34.35 202.47 32.85 204.13 C26.85 210.8 20.85 217.47 14.85 224.13 C14.12 224.95 13.38 225.77 12.62 226.61 C11.05 228.36 9.47 230.1 7.89 231.84 C7.09 232.72 6.3 233.6 5.48 234.51 C4.76 235.3 4.04 236.09 3.3 236.91 C1.33 239.08 1.33 239.08 -0.28 241.42 C-0.73 241.99 -1.18 242.55 -1.65 243.13 C-2.31 243.13 -2.97 243.13 -3.65 243.13 C-1.46 247.65 1.68 250.26 5.43 253.45 C11.25 258.54 15.26 265.46 16.35 273.13 C16.57 276.38 16.63 279.63 16.66 282.88 C16.69 283.74 16.72 284.59 16.75 285.48 C16.86 296.3 11.63 303.71 5.35 312.13 C4.54 313.25 3.73 314.36 2.92 315.48 C-1.34 321.27 -5.27 326.55 -11.65 330.13 C-12.31 330.13 -12.97 330.13 -13.65 330.13 C-13.98 331.12 -14.31 332.11 -14.65 333.13 C-26.38 338.87 -41.71 336.93 -53.65 333.13 C-53.65 332.47 -53.65 331.81 -53.65 331.13 C-54.45 330.97 -55.26 330.8 -56.09 330.63 C-60.42 328.81 -63.01 326.21 -66.3 322.91 C-69.1 320.79 -71.2 320.45 -74.65 320.13 C-75.19 320.8 -75.74 321.47 -76.3 322.15 C-77.43 323.53 -77.43 323.53 -78.59 324.95 C-79.4 325.94 -80.22 326.94 -81.05 327.97 C-82.75 330.05 -84.46 332.11 -86.18 334.17 C-86.97 335.13 -87.77 336.08 -88.59 337.07 C-89.32 337.95 -90.05 338.82 -90.8 339.72 C-92.66 341.97 -92.66 341.97 -93.59 344.14 C-95.11 347 -97.33 348.88 -99.65 351.13 C-101.51 353.2 -103.34 355.27 -105.15 357.38 C-105.66 357.98 -106.18 358.58 -106.7 359.19 C-111.37 364.69 -115.73 370.4 -120.07 376.16 C-123.41 380.58 -126.89 384.77 -130.64 388.85 C-133.2 391.76 -135.58 394.81 -137.96 397.88 C-141.59 402.56 -145.3 407.14 -149.15 411.63 C-153.36 416.55 -157.4 421.58 -161.38 426.68 C-165.52 432 -169.77 437.23 -174.03 442.45 C-176.9 445.98 -179.76 449.51 -182.59 453.07 C-186.72 458.25 -190.94 463.35 -195.16 468.46 C-199.24 473.42 -203.3 478.39 -207.34 483.38 C-211.26 488.23 -215.23 493.02 -219.27 497.76 C-225.81 505.42 -232.15 513.28 -238.06 521.44 C-245.43 531.58 -253.69 538.88 -264.65 545.13 C-265.64 545.13 -266.63 545.13 -267.65 545.13 C-267.65 545.79 -267.65 546.45 -267.65 547.13 C-277.8 551.25 -287.43 553.02 -298.35 553.88 C-306.35 554.64 -309.45 556.41 -314.7 562.53 C-315.3 563.33 -315.9 564.12 -316.52 564.95 C-322.02 571.97 -327.48 578.3 -335.65 582.13 C-336.29 582.5 -336.94 582.88 -337.61 583.26 C-343.53 586.25 -349.2 586.52 -355.71 586.57 C-356.97 586.59 -356.97 586.59 -358.25 586.6 C-368.75 586.46 -377.51 582.78 -385.27 575.76 C-386.06 574.89 -386.84 574.03 -387.65 573.13 C-388.12 572.69 -388.59 572.25 -389.07 571.79 C-396.81 563.95 -400.21 553.06 -400.15 542.26 C-399.65 526.29 -393.05 514.28 -382.65 502.13 C-381.99 502.13 -381.33 502.13 -380.65 502.13 C-380.59 500.47 -380.56 498.8 -380.52 497.13 C-380.5 496.2 -380.48 495.28 -380.45 494.32 C-380.55 491.01 -380.55 491.01 -381.63 487.45 C-382.99 482.34 -383.03 477.33 -383.02 472.07 C-383.02 471.06 -383.02 470.05 -383.02 469.01 C-382.83 457.5 -380.46 447.17 -374.65 437.13 C-374.3 436.44 -373.96 435.75 -373.6 435.04 C-370.75 429.5 -367.17 424.9 -363.16 420.14 C-360.47 416.92 -357.86 413.63 -355.27 410.32 C-354.81 409.73 -354.35 409.14 -353.87 408.53 C-352.01 406.16 -350.15 403.78 -348.3 401.4 C-342.42 393.88 -336.46 386.43 -330.42 379.03 C-327.01 374.85 -323.67 370.62 -320.4 366.32 C-316.69 361.46 -312.88 356.71 -308.99 352 C-304.94 347.04 -301 341.98 -297.06 336.93 C-294.3 333.41 -291.54 329.9 -288.78 326.39 C-286.46 323.44 -284.14 320.48 -281.83 317.53 C-277.63 312.16 -273.42 306.82 -269.09 301.57 C-265.86 297.65 -262.73 293.67 -259.65 289.63 C-255.11 283.69 -250.41 277.89 -245.65 272.13 C-240.23 265.57 -234.91 258.95 -229.66 252.25 C-226.39 248.07 -223.08 243.92 -219.75 239.77 C-216.67 235.91 -213.63 232.02 -210.59 228.13 C-210.15 227.57 -209.71 227.01 -209.26 226.43 C-208.62 225.61 -208.62 225.61 -207.97 224.76 C-207.07 223.65 -206.13 222.57 -205.17 221.52 C-202.46 218.67 -202.46 218.67 -201.55 214.99 C-203.05 212.46 -204.85 211.13 -207.21 209.38 C-216.88 201.86 -226.09 193.48 -228.01 180.74 C-229.55 162.42 -223.93 148.42 -212.34 134.45 C-203.85 124.57 -195.36 118.14 -182 116.75 C-171.31 116.41 -162.44 119.15 -152.65 123.13 C-152.65 123.79 -152.65 124.45 -152.65 125.13 C-151.66 125.46 -150.67 125.79 -149.65 126.13 C-149.65 126.79 -149.65 127.45 -149.65 128.13 C-146.67 129.37 -143.79 130.39 -140.65 131.13 C-135.85 124.57 -131.09 117.97 -126.38 111.35 C-123.07 106.71 -119.72 102.12 -116.34 97.54 C-114.58 95.12 -114.58 95.12 -113.05 92.32 C-112.36 91.24 -112.36 91.24 -111.65 90.13 C-110.99 90.13 -110.33 90.13 -109.65 90.13 C-109.43 89.46 -109.21 88.78 -108.98 88.09 C-107.25 84.24 -104.85 81.2 -102.27 77.88 C-97.94 72.21 -93.73 66.48 -89.65 60.63 C-87.65 57.8 -85.65 54.96 -83.65 52.13 C-83.16 51.45 -82.68 50.76 -82.18 50.05 C-70.57 33.72 -56.43 16.38 -36.65 10.13 C-35.56 9.58 -34.46 9.02 -33.34 8.45 C-30.65 7.13 -30.65 7.13 -27.65 7.13 C-27.65 6.47 -27.65 5.81 -27.65 5.13 C-25.27 4.48 -22.9 3.84 -20.52 3.2 C-19.86 3.01 -19.19 2.83 -18.51 2.64 C-12.26 0.96 -6.48 0.01 0 0 Z " fill="currentColor" transform="translate(820.6484375,269.8671875)"/>
<path d="M0 0 C1.53 0.01 1.53 0.01 3.08 0.01 C17.76 0.24 32 2.59 46.31 5.75 C47.19 5.94 48.07 6.14 48.98 6.33 C58.13 8.47 66.53 12.04 74.81 16.44 C75.53 16.82 76.25 17.2 76.99 17.59 C82.08 20.36 86.9 23.4 91.62 26.75 C92.23 27.17 92.83 27.6 93.45 28.04 C94.86 29.07 96.22 30.19 97.56 31.31 C97.56 31.97 97.56 32.63 97.56 33.31 C98.14 33.56 98.71 33.82 99.3 34.07 C115.5 42.94 126.32 67.15 131.39 84.09 C136.97 103.88 137.16 123.3 137.14 143.69 C137.14 148.13 137.16 152.57 137.18 157.01 C137.21 165.4 137.23 173.79 137.24 182.19 C137.25 194.48 137.29 206.78 137.33 219.08 C137.34 219.99 137.34 220.9 137.34 221.83 C137.35 223.64 137.36 225.45 137.36 227.27 C137.38 232.52 137.39 237.78 137.4 243.04 C137.4 246.32 137.41 249.6 137.42 252.88 C137.42 254.38 137.42 255.89 137.42 257.39 C137.42 269.77 138.08 282.02 139.56 294.31 C140.22 294.31 140.88 294.31 141.56 294.31 C141.8 295.09 142.05 295.86 142.3 296.66 C145.44 307.29 145.44 307.29 151.56 316.31 C151.56 317.63 151.56 318.95 151.56 320.31 C152.22 320.31 152.88 320.31 153.56 320.31 C154.79 322.01 156.02 323.71 157.21 325.44 C160.33 329.76 164.33 333.12 168.56 336.31 C169.27 336.85 169.98 337.39 170.71 337.94 C179.3 344.22 188.04 348.56 198.56 350.31 C200.16 350.59 200.16 350.59 201.79 350.87 C204.71 351.37 207.64 351.85 210.56 352.31 C210.56 352.97 210.56 353.63 210.56 354.31 C211.16 354.6 211.76 354.89 212.38 355.19 C217.35 357.75 217.35 357.75 218.24 360.12 C218.88 364.48 218.79 368.86 218.81 373.25 C218.84 374.73 218.84 374.73 218.88 376.25 C218.91 382.87 218.06 386.28 213.81 391.44 C208.85 395.57 204.41 396.38 198.12 397 C187.03 398.41 176.57 404.02 168.04 411.18 C166.56 412.31 166.56 412.31 163.56 413.31 C163.23 414.3 162.9 415.29 162.56 416.31 C161.42 417.49 160.27 418.66 159.09 419.8 C154.34 424.5 150.22 429.12 147.56 435.31 C147.26 435.96 146.95 436.6 146.64 437.26 C142.57 445.97 139.55 454.58 138.46 464.17 C138.34 465.28 138.34 465.28 138.21 466.41 C137.36 474.32 137.28 482.18 137.29 490.12 C137.29 491.72 137.28 493.32 137.28 494.92 C137.26 498.33 137.26 501.74 137.26 505.15 C137.26 510.56 137.24 515.96 137.22 521.37 C137.17 534.8 137.14 548.22 137.12 561.65 C137.1 572.1 137.08 582.56 137.03 593.01 C137.01 598.37 137 603.73 137 609.09 C137 612.44 136.99 615.79 136.97 619.14 C136.97 620.68 136.97 622.21 136.97 623.75 C137.01 636.74 135.93 649.82 131.3 662.08 C130.36 664.93 129.83 667.81 129.25 670.75 C128.03 676.22 126.16 680.32 123.09 684.98 C121.63 687.21 120.41 689.45 119.19 691.81 C114.23 700.8 106.89 709.17 99.56 716.31 C98.9 716.31 98.24 716.31 97.56 716.31 C97.56 716.97 97.56 717.63 97.56 718.31 C96.16 719.53 96.16 719.53 94.2 720.88 C93.15 721.61 93.15 721.61 92.07 722.35 C91.33 722.85 90.58 723.36 89.81 723.88 C89.08 724.38 88.35 724.89 87.6 725.41 C84.26 727.69 81.58 729.52 77.56 730.31 C77.56 730.97 77.56 731.63 77.56 732.31 C76.49 732.71 75.41 733.11 74.31 733.52 C72.87 734.05 71.44 734.59 70 735.12 C69.3 735.39 68.59 735.65 67.87 735.92 C64.52 737.16 61.23 738.46 57.95 739.88 C48.6 743.83 38.61 746.04 28.56 747.31 C27.53 747.44 27.53 747.44 26.48 747.58 C19.11 748.42 11.78 748.5 4.38 748.5 C3.14 748.51 1.91 748.52 0.64 748.54 C-10.93 748.56 -10.93 748.56 -16.44 746.31 C-22.46 740.29 -22.8 734.16 -22.81 726.06 C-22.84 725.16 -22.86 724.26 -22.89 723.32 C-22.91 716.91 -21.75 711.86 -18.44 706.31 C-15.35 703.31 -15.35 703.31 -12.44 703.31 C-12.44 702.65 -12.44 701.99 -12.44 701.31 C-11.84 701.29 -11.24 701.27 -10.62 701.25 C3.72 700.75 17.48 700.05 31.32 695.9 C33.56 695.31 33.56 695.31 36.56 695.31 C36.56 694.65 36.56 693.99 36.56 693.31 C37.16 693.12 37.75 692.92 38.36 692.72 C50.11 688.48 58.44 681.46 65.56 671.31 C66.19 670.43 66.82 669.56 67.47 668.65 C77.85 653.36 78.86 636.27 78.88 618.32 C78.89 616.66 78.9 614.99 78.91 613.32 C78.94 608.84 78.95 604.35 78.97 599.87 C78.98 595.17 79.01 590.46 79.04 585.76 C79.08 576.88 79.12 567.99 79.15 559.11 C79.19 548.98 79.24 538.86 79.29 528.74 C79.39 507.93 79.48 487.12 79.56 466.31 C80.22 466.31 80.88 466.31 81.56 466.31 C81.57 465.44 81.57 464.56 81.57 463.66 C81.98 450.6 85.65 438.94 91.56 427.31 C92.26 424.58 92.26 424.58 92.56 422.31 C93.22 422.31 93.88 422.31 94.56 422.31 C94.77 421.51 94.97 420.7 95.19 419.88 C101.87 402.57 119.33 388.88 134.56 379.31 C137.44 378.56 137.44 378.56 139.56 378.31 C139.56 377.65 139.56 376.99 139.56 376.31 C141.87 375.32 144.18 374.33 146.56 373.31 C145.65 372.96 144.75 372.61 143.81 372.25 C123.09 363.36 123.09 363.36 119.56 356.31 C118.95 356.01 118.34 355.71 117.7 355.41 C113.77 353.39 111.34 349.68 108.56 346.31 C107.92 345.56 107.28 344.8 106.61 344.02 C92.8 327.39 85.01 308.56 81.56 287.31 C81.4 286.66 81.24 286 81.08 285.33 C79.23 277.51 79.27 269.74 79.28 261.76 C79.27 260.21 79.26 258.66 79.25 257.11 C79.24 253.79 79.23 250.47 79.23 247.14 C79.22 241.87 79.2 236.61 79.17 231.34 C79.13 220.14 79.09 208.95 79.06 197.75 C79.03 185.68 78.99 173.62 78.94 161.55 C78.92 156.33 78.9 151.11 78.89 145.89 C78.89 142.62 78.87 139.35 78.86 136.08 C78.85 134.58 78.85 133.08 78.85 131.58 C78.86 118.26 78.7 103.9 73.88 91.31 C73.62 90.61 73.36 89.91 73.09 89.18 C70.83 83.4 67.88 78.8 63.56 74.31 C63.01 73.69 62.45 73.07 61.88 72.43 C57.63 67.89 52.85 64.55 47.56 61.31 C46.94 60.93 46.32 60.55 45.68 60.16 C33.27 52.81 19.34 49.35 5 49.21 C3.53 49.18 3.53 49.18 2.03 49.16 C0 49.14 -2.02 49.13 -4.04 49.15 C-9.99 49.02 -13.82 48.4 -18.08 44.05 C-22.67 38.17 -22.88 32.43 -22.75 25.31 C-22.75 24.02 -22.75 24.02 -22.76 22.7 C-22.69 14.34 -21.48 8.35 -15.44 2.31 C-10.62 -0.43 -5.39 -0.03 0 0 Z " fill="currentColor" transform="translate(1015.4375,262.6875)"/>
<path d="M0 0 C1.52 -0.02 3.04 -0.05 4.56 -0.09 C18.22 -0.44 18.22 -0.44 22.8 3.31 C26.58 7.28 27.67 10.77 27.68 16.21 C27.69 17.31 27.69 18.4 27.69 19.52 C27.68 20.66 27.68 21.8 27.67 22.97 C27.68 24.1 27.68 25.23 27.69 26.4 C27.69 27.49 27.69 28.59 27.68 29.71 C27.68 30.71 27.68 31.7 27.68 32.73 C27.41 35.67 26.65 37.86 25.42 40.53 C24.76 40.53 24.1 40.53 23.42 40.53 C23.21 41.13 23.01 41.73 22.79 42.34 C20.78 45.54 18.96 46.15 15.42 47.53 C11.62 48.06 7.81 48.22 3.98 48.4 C-19.02 49.93 -38.89 53.58 -55.58 70.53 C-56.25 71.2 -56.92 71.87 -57.61 72.56 C-61.92 77.16 -64.38 81.67 -66.58 87.53 C-67.09 88.84 -67.61 90.14 -68.12 91.45 C-68.67 92.87 -69.22 94.29 -69.77 95.72 C-70.03 96.39 -70.29 97.07 -70.56 97.77 C-72.95 104.11 -73.7 109.79 -73.72 116.55 C-73.72 117.23 -73.72 117.91 -73.73 118.61 C-73.74 120.89 -73.74 123.16 -73.74 125.44 C-73.74 127.08 -73.75 128.71 -73.75 130.35 C-73.77 133.87 -73.77 137.39 -73.78 140.91 C-73.79 146.5 -73.81 152.08 -73.83 157.66 C-73.9 173.54 -73.95 189.42 -73.98 205.3 C-74 214.07 -74.03 222.84 -74.07 231.61 C-74.09 236.25 -74.11 240.88 -74.11 245.51 C-74.11 249.88 -74.13 254.25 -74.15 258.62 C-74.16 260.21 -74.16 261.8 -74.16 263.39 C-74.13 278.98 -76.02 293.89 -81.58 308.53 C-81.93 309.56 -82.27 310.59 -82.63 311.66 C-86.79 323.54 -93.77 333.73 -101.58 343.53 C-101.98 344.07 -102.38 344.62 -102.79 345.18 C-112.07 357.12 -127.13 366.18 -140.58 372.53 C-138.25 375.15 -135.93 376.49 -132.77 377.97 C-121.46 383.28 -110.28 391.66 -102.58 401.53 C-101.96 402.12 -101.35 402.72 -100.71 403.33 C-98.17 405.96 -96.13 408.83 -94.08 411.84 C-93.48 412.72 -93.48 412.72 -92.88 413.62 C-91.77 415.25 -90.68 416.89 -89.58 418.53 C-89.15 419.15 -88.73 419.77 -88.28 420.41 C-85.08 425.43 -83.59 431.27 -81.83 436.91 C-80.71 440.49 -80.71 440.49 -79 443.42 C-77.14 447.49 -76.82 451.23 -76.46 455.65 C-76.38 456.43 -76.31 457.21 -76.23 458.01 C-76.09 459.61 -75.95 461.2 -75.81 462.79 C-75.66 464.55 -75.5 466.31 -75.33 468.06 C-74.49 476.82 -74.41 485.53 -74.38 494.31 C-74.37 495.97 -74.36 497.63 -74.35 499.28 C-74.32 503.75 -74.3 508.21 -74.28 512.67 C-74.26 517.35 -74.23 522.02 -74.2 526.7 C-74.15 535.54 -74.11 544.38 -74.06 553.22 C-74.01 563.29 -73.96 573.36 -73.9 583.43 C-73.79 604.13 -73.68 624.83 -73.58 645.53 C-72.92 645.53 -72.26 645.53 -71.58 645.53 C-71.41 646.41 -71.24 647.29 -71.07 648.2 C-70.82 649.36 -70.58 650.52 -70.33 651.72 C-70.1 652.87 -69.87 654.01 -69.63 655.2 C-68.5 658.77 -66.98 660.7 -64.58 663.53 C-63.83 666.84 -63.83 666.84 -63.58 669.53 C-62.92 669.53 -62.26 669.53 -61.58 669.53 C-60.21 671.18 -60.21 671.18 -58.58 673.47 C-49.45 685.45 -38.53 691.79 -24.39 696.34 C-23.75 696.55 -23.11 696.76 -22.45 696.97 C-15.68 699.02 -9 699.54 -1.95 699.67 C-0.98 699.69 -0.01 699.71 1 699.73 C2.99 699.76 4.98 699.78 6.98 699.78 C15.32 699.99 20.12 702.12 25.9 708.09 C28.17 713.22 27.92 717.99 27.79 723.53 C27.79 725.13 27.79 725.13 27.79 726.76 C27.68 736.75 27.68 736.75 25.42 741.53 C21.21 745.53 21.21 745.53 18.42 745.53 C18.42 746.52 18.42 747.51 18.42 748.53 C-13.85 749.14 -43.98 746.68 -72.71 730.59 C-73.84 729.97 -73.84 729.97 -75.01 729.33 C-78.63 727.31 -82.1 725.22 -85.45 722.78 C-88.4 720.43 -88.4 720.43 -91.58 719.53 C-92.01 718.63 -92.01 718.63 -92.46 717.72 C-93.95 714.82 -96.03 713.56 -98.58 711.53 C-100.68 709.28 -102.63 706.91 -104.58 704.53 C-105.76 703.14 -105.76 703.14 -106.96 701.72 C-108.58 699.53 -108.58 699.53 -108.58 697.53 C-109.24 697.53 -109.9 697.53 -110.58 697.53 C-111.9 694.97 -113.21 692.41 -114.52 689.84 C-114.89 689.12 -115.26 688.4 -115.65 687.66 C-117.52 683.96 -119.06 680.69 -119.58 676.53 C-120.24 676.53 -120.9 676.53 -121.58 676.53 C-121.77 675.78 -121.97 675.03 -122.17 674.26 C-122.43 673.28 -122.69 672.29 -122.96 671.28 C-123.21 670.31 -123.47 669.33 -123.73 668.33 C-124.44 665.65 -124.44 665.65 -125.5 663.87 C-133.72 646.02 -131.14 622.8 -131.09 603.66 C-131.08 598.88 -131.1 594.09 -131.11 589.31 C-131.14 578.22 -131.15 567.14 -131.14 556.05 C-131.14 541.91 -131.15 527.76 -131.19 513.62 C-131.21 507.95 -131.21 502.28 -131.19 496.61 C-131.19 493.08 -131.2 489.55 -131.21 486.02 C-131.21 484.39 -131.21 482.77 -131.2 481.14 C-131.16 471.87 -131.82 463.47 -134.58 454.53 C-134.94 453.19 -135.29 451.85 -135.64 450.51 C-135.95 449.4 -136.26 448.29 -136.58 447.15 C-136.89 446.03 -137.2 444.91 -137.52 443.76 C-138.59 440.49 -140.03 437.59 -141.58 434.53 C-141.58 433.87 -141.58 433.21 -141.58 432.53 C-142.24 432.53 -142.9 432.53 -143.58 432.53 C-144.62 431.06 -144.62 431.06 -145.77 429.03 C-151.56 419.42 -161.65 408.17 -172.58 404.53 C-172.58 403.87 -172.58 403.21 -172.58 402.53 C-173.63 402.26 -174.68 401.99 -175.77 401.72 C-179.58 400.53 -179.58 400.53 -181.83 399.09 C-187.63 395.8 -194.43 394.7 -200.96 393.59 C-206.33 392.55 -209.18 390.54 -212.33 386.03 C-215.82 379.06 -215.62 369.76 -214.12 362.2 C-212.45 357.85 -209.6 353.9 -205.58 351.53 C-199.65 349.97 -193.7 349.42 -187.58 349.53 C-187.58 348.87 -187.58 348.21 -187.58 347.53 C-186.95 347.29 -186.32 347.05 -185.67 346.8 C-163.69 338.19 -149.33 325.18 -139 303.83 C-132.24 288.11 -131.44 273.2 -131.41 256.24 C-131.4 254.64 -131.39 253.03 -131.39 251.43 C-131.37 248 -131.36 244.56 -131.35 241.13 C-131.34 235.7 -131.31 230.27 -131.29 224.84 C-131.22 209.41 -131.16 193.98 -131.1 178.54 C-131.08 170 -131.04 161.46 -131 152.92 C-130.97 147.52 -130.95 142.13 -130.94 136.74 C-130.93 133.38 -130.92 130.02 -130.9 126.66 C-130.89 125.11 -130.88 123.56 -130.88 122.01 C-130.88 114.6 -130.85 107.65 -128.58 100.53 C-128.32 99.04 -128.09 97.55 -127.91 96.05 C-125.99 81.79 -121.93 69.97 -114.58 57.53 C-114.08 56.65 -113.58 55.77 -113.07 54.86 C-104.37 40.25 -91.59 28.9 -77.58 19.53 C-76.85 19.03 -76.13 18.53 -75.38 18.01 C-71.45 15.41 -68.4 13.89 -63.58 13.53 C-63.58 12.87 -63.58 12.21 -63.58 11.53 C-60.96 10.56 -58.33 9.61 -55.71 8.65 C-54.98 8.39 -54.25 8.12 -53.5 7.84 C-47.93 5.83 -42.4 4.57 -36.58 3.53 C-35.85 3.39 -35.12 3.24 -34.37 3.1 C-22.98 0.9 -11.58 0.15 0 0 Z " fill="currentColor" transform="translate(264.5810546875,263.47027587890625)"/>
<path d="M0 0 C0.76 -0.01 1.52 -0.03 2.31 -0.04 C4.8 0.21 6.41 0.95 8.56 2.19 C8.56 2.85 8.56 3.51 8.56 4.19 C9.11 4.4 9.65 4.61 10.21 4.83 C13.41 6.68 15.67 9.23 18.12 11.94 C18.61 12.45 19.09 12.96 19.58 13.49 C22.63 16.83 24.62 20.07 26.56 24.19 C27.88 25.54 29.21 26.88 30.56 28.19 C30.56 28.85 30.56 29.51 30.56 30.19 C31.22 30.19 31.88 30.19 32.56 30.19 C35.68 33.49 36.56 34.51 36.56 39.19 C37.22 39.19 37.88 39.19 38.56 39.19 C39.86 41.02 39.86 41.02 41.31 43.56 C42.87 46.28 44.42 48.97 46.15 51.59 C50.06 57.56 52.05 63.52 53.8 70.38 C54.28 73.07 54.28 73.07 55.56 74.19 C55.82 77.39 55.75 80.6 55.75 83.81 C55.76 84.7 55.77 85.59 55.79 86.51 C55.82 101.94 48.17 114.7 37.98 125.79 C26.54 137.12 12.92 140.41 -2.66 140.37 C-16.36 140.21 -27.19 136.47 -37.44 127.19 C-40.24 124.29 -42.85 121.28 -45.44 118.19 C-46.61 116.92 -46.61 116.92 -47.81 115.62 C-50.06 112.26 -50.63 109.14 -51.44 105.19 C-52.1 105.19 -52.76 105.19 -53.44 105.19 C-55.4 98.62 -55.77 92.59 -55.75 85.75 C-55.77 84.76 -55.78 83.78 -55.8 82.76 C-55.8 76.31 -54.8 71.17 -52.44 65.19 C-52.15 64.26 -51.86 63.33 -51.56 62.38 C-51.33 61.65 -51.11 60.93 -50.88 60.19 C-50.65 59.45 -50.42 58.7 -50.18 57.94 C-49.44 56.19 -49.44 56.19 -47.44 55.19 C-47.05 54.05 -46.65 52.92 -46.25 51.75 C-44.64 47.2 -42.15 43.68 -39.31 39.81 C-37.48 37.25 -35.87 34.63 -34.25 31.94 C-30.09 25.32 -24.99 19.59 -19.82 13.76 C-18.6 12.38 -17.42 10.97 -16.25 9.55 C-15.65 8.84 -15.05 8.12 -14.44 7.38 C-13.94 6.77 -13.45 6.17 -12.94 5.54 C-11.16 3.94 -9.78 3.58 -7.44 3.19 C-7.44 2.53 -7.44 1.87 -7.44 1.19 C-4.67 0.26 -2.87 0.02 0 0 Z " fill="currentColor" transform="translate(445.4375,865.8125)" opacity="0.983"/>
<path d="M0 0 C0.66 0.33 1.32 0.66 2 1 C1.22 2.17 0.42 3.34 -0.38 4.5 C-0.82 5.15 -1.26 5.8 -1.71 6.47 C-2.14 6.97 -2.56 7.48 -3 8 C-3.66 8 -4.32 8 -5 8 C-4.67 8.66 -4.34 9.32 -4 10 C-3.92 11.89 -3.89 13.78 -3.9 15.66 C-3.91 16.79 -3.91 17.91 -3.91 19.06 C-3.92 20.24 -3.93 21.41 -3.94 22.62 C-3.94 23.81 -3.95 24.99 -3.95 26.21 C-3.96 29.14 -3.98 32.07 -4 35 C-4.33 34.34 -4.66 33.68 -5 33 C-5.66 33 -6.32 33 -7 33 C-7.06 29.81 -7.09 26.63 -7.12 23.44 C-7.14 22.54 -7.16 21.65 -7.18 20.72 C-7.24 12 -6.01 6.49 0 0 Z " fill="currentColor" transform="translate(1000,265)" opacity="0.932"/>
<path d="M0 0 C0 0.66 0 1.32 0 2 C-10.19 5.72 -21.22 6.4 -32 6 C-28.65 2.33 -25.61 1.87 -20.78 1.46 C-19.26 1.33 -19.26 1.33 -17.71 1.2 C-16.12 1.07 -16.12 1.07 -14.5 0.94 C-13.44 0.85 -12.38 0.76 -11.29 0.66 C-3.46 0 -3.46 0 0 0 Z " fill="currentColor" transform="translate(544,818)" opacity="0.925"/>
<path d="M0 0 C0.66 0 1.32 0 2 0 C2 8.58 2 17.16 2 26 C1.34 26 0.68 26 0 26 C-1.21 23.58 -1.13 22.02 -1.13 19.32 C-1.13 18.39 -1.14 17.46 -1.14 16.51 C-1.13 15.53 -1.13 14.56 -1.12 13.56 C-1.13 12.6 -1.13 11.63 -1.14 10.63 C-1.14 9.7 -1.13 8.77 -1.13 7.82 C-1.13 6.97 -1.13 6.11 -1.13 5.24 C-1 3 -1 3 0 0 Z " fill="currentColor" transform="translate(994,975)" opacity="0.935"/>
<path d="M0 0 C0.66 0.33 1.32 0.66 2 1 C0.81 3.88 0.81 3.88 -1 7 C-2.65 7.66 -4.3 8.32 -6 9 C-6.33 16.59 -6.66 24.18 -7 32 C-10.18 25.63 -9.93 17.65 -8.54 10.67 C-6.82 6.16 -3.49 3.18 0 0 Z " fill="currentColor" transform="translate(59,615)" opacity="0.719"/>
<path d="M0 0 C0.68 1.76 0.68 1.76 1 4 C-2.46 9.69 -8.55 15.21 -14 19 C-14.99 19 -15.98 19 -17 19 C-16.36 18.38 -15.72 17.77 -15.06 17.13 C-9.54 11.73 -4.55 6.24 0 0 Z " fill="currentColor" transform="translate(509,828)" opacity="0.270"/>
<path d="M0 0 C0.66 0 1.32 0 2 0 C1.75 1.81 1.75 1.81 1 4 C0.38 4.45 -0.24 4.91 -0.88 5.38 C-3.64 7.49 -4.6 9.85 -6 13 C-6.66 13 -7.32 13 -8 13 C-8.33 13.99 -8.66 14.98 -9 16 C-11.06 17.19 -11.06 17.19 -13 18 C-11.02 13.79 -8.36 10.39 -5.5 6.75 C-4.75 5.78 -4.75 5.78 -3.99 4.78 C-2.71 3.15 -1.36 1.57 0 0 Z " fill="currentColor" transform="translate(470,674)" opacity="0.745"/>
<path d="M0 0 C0.93 3.01 1.04 3.87 0 7 C-0.99 7.5 -0.99 7.5 -2 8 C-4.11 14.56 -4.57 21.15 -5 28 C-5.33 28 -5.66 28 -6 28 C-6.42 18.13 -6.58 7.98 0 0 Z " fill="currentColor" transform="translate(473,720)" opacity="0.349"/>
<path d="M0 0 C0.33 0.99 0.66 1.98 1 3 C0.01 3.33 -0.98 3.66 -2 4 C-2.15 5.14 -2.15 5.14 -2.31 6.31 C-3.07 9.29 -3.71 10.05 -6 12 C-6.72 12.72 -7.44 13.44 -8.19 14.19 C-9.08 15.08 -9.08 15.08 -10 16 C-10 11.95 -7.95 9.93 -5.56 6.88 C-5.14 6.32 -4.72 5.77 -4.29 5.21 C-1.25 1.25 -1.25 1.25 0 0 Z " fill="currentColor" transform="translate(750,305)" opacity="0.759"/>
<path d="M0 0 C-2.34 2.16 -3.62 2.97 -6.84 3.25 C-8.44 3.16 -8.44 3.16 -10.08 3.07 C-11.24 3.02 -12.4 2.96 -13.59 2.91 C-14.8 2.84 -16.01 2.76 -17.25 2.69 C-18.47 2.63 -19.69 2.57 -20.95 2.5 C-23.97 2.35 -26.98 2.18 -30 2 C-30 1.67 -30 1.34 -30 1 C-26.5 0.83 -23 0.66 -19.5 0.5 C-18.52 0.45 -17.54 0.4 -16.52 0.36 C-11.01 0.1 -5.52 -0.05 0 0 Z " fill="currentColor" transform="translate(1033,963)" opacity="0.801"/>
<path d="M0 0 C15.98 -0.6 15.98 -0.6 20.82 3.57 C21.41 4.28 21.41 4.28 22 5 C14.54 4.25 7.31 2.63 0 1 C0 0.67 0 0.34 0 0 Z " fill="currentColor" transform="translate(1045,265)" opacity="0.384"/>
<path d="M0 0 C0.99 0.33 1.98 0.66 3 1 C3.33 2.65 3.66 4.3 4 6 C3.04 6.37 3.04 6.37 2.06 6.75 C-0.17 7.8 -0.17 7.8 -0.69 10 C-0.79 10.66 -0.89 11.32 -1 12 C-1.33 12.66 -1.66 13.32 -2 14 C-4.06 14.62 -4.06 14.62 -6 15 C-4.77 12.1 -3.48 10.43 -1.31 8.06 C1.33 5.26 1.33 5.26 0.81 2.12 C0.54 1.42 0.28 0.72 0 0 Z " fill="currentColor" transform="translate(618,482)" opacity="0.807"/>
<path d="M0 0 C0.33 0.99 0.66 1.98 1 3 C0.01 3.33 -0.98 3.66 -2 4 C-2.06 4.72 -2.12 5.44 -2.19 6.19 C-3.24 9.85 -5.21 11.49 -8 14 C-8.99 13.67 -9.98 13.34 -11 13 C-10.3 12.34 -9.6 11.68 -8.88 11 C-5.51 7.65 -2.78 3.84 0 0 Z " fill="currentColor" transform="translate(689,389)" opacity="0.728"/>
<path d="M0 0 C0.66 0.99 1.32 1.98 2 3 C1.34 3 0.68 3 0 3 C-0.12 3.78 -0.25 4.57 -0.38 5.38 C-1 8 -1 8 -3 10 C-3.31 10.85 -3.62 11.69 -3.94 12.56 C-4.29 13.37 -4.64 14.17 -5 15 C-5.99 15.33 -6.98 15.66 -8 16 C-6.57 12.21 -4.84 8.73 -2.88 5.19 C-2.34 4.21 -1.8 3.24 -1.24 2.23 C-0.83 1.49 -0.42 0.76 0 0 Z " fill="currentColor" transform="translate(882,387)" opacity="0.784"/>
<path d="M0 0 C0.99 0.66 1.98 1.32 3 2 C3.47 5.15 3.47 5.15 3.5 8.94 C3.53 10.18 3.56 11.43 3.59 12.71 C3 16 3 16 0.47 17.94 C-0.35 18.29 -1.16 18.64 -2 19 C-0.12 14.12 -0.12 14.12 1 13 C1.1 11.38 1.13 9.75 1.12 8.12 C1.13 7.24 1.13 6.36 1.13 5.45 C1.1 2.86 1.1 2.86 0 0 Z " fill="currentColor" transform="translate(805,544)" opacity="0.600"/>
<path d="M0 0 C0 3.6 -0.96 5.09 -3 8 C-3.66 8 -4.32 8 -5 8 C-5.33 9.32 -5.66 10.64 -6 12 C-7.32 12.33 -8.64 12.66 -10 13 C-6.73 8.61 -3.45 4.25 0 0 Z " fill="currentColor" transform="translate(826,581)" opacity="0.316"/>
<path d="M0 0 C7.25 -0.67 11.76 1.42 18 5 C15.26 6.37 14.13 5.61 11.25 4.69 C10.36 4.41 9.47 4.13 8.55 3.84 C2.46 1.84 2.46 1.84 0 1 C0 0.67 0 0.34 0 0 Z " fill="currentColor" transform="translate(838,304)" opacity="0.500"/>
<path d="M0 0 C0.33 0.66 0.66 1.32 1 2 C-0.47 5.74 -0.47 5.74 -3 7 C-3.71 8.24 -3.71 8.24 -4.44 9.5 C-6 12 -6 12 -9 13 C-7.51 9.72 -5.61 7.07 -3.38 4.25 C-2.74 3.45 -2.11 2.65 -1.46 1.83 C-0.98 1.22 -0.5 0.62 0 0 Z " fill="currentColor" transform="translate(565,764)" opacity="0.735"/>
<path d="M0 0 C0 0.66 0 1.32 0 2 C-0.64 2.29 -1.28 2.58 -1.94 2.88 C-4.15 3.83 -4.15 3.83 -5 6 C-3.79 6.19 -3.79 6.19 -2.56 6.38 C-1.29 6.68 -1.29 6.68 0 7 C0.33 7.66 0.66 8.32 1 9 C-6.57 7.14 -6.57 7.14 -9 4 C-2.25 0 -2.25 0 0 0 Z " fill="currentColor" transform="translate(131,632)" opacity="0.300"/>
<path d="M0 0 C0.66 0.33 1.32 0.66 2 1 C0.78 2.44 -0.45 3.88 -1.69 5.31 C-2.37 6.11 -3.06 6.91 -3.76 7.74 C-6.02 10.02 -8.19 11.48 -11 13 C-9.46 9.32 -7.22 7.01 -4.38 4.25 C-3.56 3.45 -2.74 2.65 -1.9 1.83 C-0.96 0.92 -0.96 0.92 0 0 Z " fill="currentColor" transform="translate(784,317)" opacity="0.286"/>
<path d="M0 0 C2.29 -0.08 4.58 -0.14 6.88 -0.19 C8.79 -0.24 8.79 -0.24 10.74 -0.29 C11.82 -0.2 12.89 -0.1 14 0 C14.66 0.99 15.32 1.98 16 3 C10.21 3.21 5.57 2.59 0 1 C0 0.67 0 0.34 0 0 Z " fill="currentColor" transform="translate(224,1006)" opacity="0.739"/>
<path d="M0 0 C0.33 0.66 0.66 1.32 1 2 C-0.47 5.74 -0.47 5.74 -3 7 C-3.71 8.24 -3.71 8.24 -4.44 9.5 C-6 12 -6 12 -9 13 C-7.63 10.05 -6.12 7.48 -4 5 C-3.34 5 -2.68 5 -2 5 C-1.34 3.35 -0.68 1.7 0 0 Z " fill="currentColor" transform="translate(611,707)" opacity="0.716"/>
<path d="M0 0 C0.66 0.33 1.32 0.66 2 1 C0.6 6.29 -2.85 8.77 -7 12 C-5.62 9.13 -4.08 6.44 -2.38 3.75 C-1.93 3.04 -1.48 2.34 -1.02 1.61 C-0.69 1.08 -0.35 0.55 0 0 Z " fill="currentColor" transform="translate(709,360)" opacity="0.706"/>
<path d="M0 0 C0 4.05 -1.61 5.8 -4 9 C-5.49 9.99 -5.49 9.99 -7 11 C-5.72 6.01 -3.83 3.42 0 0 Z " fill="currentColor" transform="translate(759,296)" opacity="0.928"/>
<path d="M0 0 C0.66 0.33 1.32 0.66 2 1 C1.22 2.17 0.42 3.34 -0.38 4.5 C-0.82 5.15 -1.26 5.8 -1.71 6.47 C-2.14 6.97 -2.56 7.48 -3 8 C-3.66 8 -4.32 8 -5 8 C-5 9.65 -5 11.3 -5 13 C-5.33 13 -5.66 13 -6 13 C-6.47 9.82 -6.51 7.75 -4.66 5.04 C-3.16 3.31 -1.62 1.63 0 0 Z " fill="currentColor" transform="translate(1000,265)" opacity="0.712"/>
<path d="M0 0 C-8.04 4.08 -8.04 4.08 -12.06 3.75 C-12.7 3.5 -13.34 3.25 -14 3 C-11.87 0.87 -10.96 0.52 -8.12 -0.19 C-7.45 -0.37 -6.77 -0.55 -6.07 -0.73 C-3.77 -1.03 -2.19 -0.69 0 0 Z " fill="currentColor" transform="translate(1070,1005)" opacity="0.287"/>
<path d="M0 0 C0.33 0 0.66 0 1 0 C1.29 6.05 1.29 6.05 1 8 C-0.49 8.99 -0.49 8.99 -2 10 C-2.2 3.95 -2.2 3.95 -2 2 C-1.34 1.34 -0.68 0.68 0 0 Z " fill="currentColor" transform="translate(135,534)" opacity="0.912"/>
<path d="M0 0 C4.95 0 9.9 0 15 0 C15 0.33 15 0.66 15 1 C10.05 1.66 5.1 2.32 0 3 C0 2.01 0 1.02 0 0 Z " fill="currentColor" transform="translate(1020,264)" opacity="0.952"/>
<path d="M0 0 C0.33 1.32 0.66 2.64 1 4 C-1.64 6.31 -4.28 8.62 -7 11 C-7 7.22 -6 6.54 -3.5 3.81 C-2.85 3.1 -2.2 2.38 -1.53 1.64 C-1.03 1.1 -0.52 0.56 0 0 Z " fill="currentColor" transform="translate(491,804)" opacity="0.797"/>
<path d="M0 0 C0.71 1.77 0.71 1.77 1 4 C-0.43 5.92 -0.43 5.92 -2.44 7.75 C-3.43 8.67 -3.43 8.67 -4.43 9.61 C-4.95 10.07 -5.47 10.53 -6 11 C-6 7.39 -5.18 6.59 -3 3.81 C-2.44 3.1 -1.89 2.38 -1.31 1.64 C-0.88 1.1 -0.45 0.56 0 0 Z " fill="currentColor" transform="translate(458,794)" opacity="0.278"/>
<path d="M0 0 C0 3.65 -0.89 5.06 -3 8 C-5.19 9.31 -5.19 9.31 -7 10 C-5.33 6.06 -2.77 3.21 0 0 Z " fill="currentColor" transform="translate(487,653)" opacity="0.694"/>
<path d="M0 0 C0 3.65 -0.89 5.06 -3 8 C-5.19 9.31 -5.19 9.31 -7 10 C-5.33 6.06 -2.77 3.21 0 0 Z " fill="currentColor" transform="translate(711,632)" opacity="0.312"/>
<path d="M0 0 C-2.71 2.6 -3.89 2.99 -7.75 3.19 C-8.82 3.13 -9.9 3.06 -11 3 C-10 1 -10 1 -8.22 0.33 C-7.51 0.16 -6.8 -0.01 -6.06 -0.19 C-5.35 -0.37 -4.64 -0.55 -3.91 -0.73 C-2 -1 -2 -1 0 0 Z " fill="currentColor" transform="translate(242,316)" opacity="0.304"/>
<path d="M0 0 C0 3.78 -1.08 5.77 -3 9 C-5.19 10.38 -5.19 10.38 -7 11 C-5.22 6.96 -2.6 3.54 0 0 Z " fill="currentColor" transform="translate(1084,930)" opacity="0.651"/>
<path d="M0 0 C0 0.33 0 0.66 0 1 C-1.41 1.37 -2.83 1.72 -4.25 2.06 C-5.04 2.26 -5.83 2.46 -6.64 2.66 C-9.1 3.01 -10.66 2.77 -13 2 C-9.16 -2.17 -5.08 -0.9 0 0 Z " fill="currentColor" transform="translate(255,312)" opacity="0.793"/>
<path d="M0 0 C0.66 0.33 1.32 0.66 2 1 C-0.31 3.64 -2.62 6.28 -5 9 C-5.66 8.67 -6.32 8.34 -7 8 C-4.79 5.18 -2.6 2.47 0 0 Z " fill="currentColor" transform="translate(1179,676)" opacity="0.249"/>
<path d="M0 0 C0 3.65 -0.89 5.06 -3 8 C-5.19 9.31 -5.19 9.31 -7 10 C-5.33 6.06 -2.77 3.21 0 0 Z " fill="currentColor" transform="translate(422,884)" opacity="0.655"/>
<path d="M0 0 C0 3.65 -0.89 5.06 -3 8 C-5.19 9.31 -5.19 9.31 -7 10 C-5.33 6.06 -2.77 3.21 0 0 Z " fill="currentColor" transform="translate(590,781)" opacity="0.349"/>
<path d="M0 0 C0 3.65 -0.89 5.06 -3 8 C-5.19 9.31 -5.19 9.31 -7 10 C-5.33 6.06 -2.77 3.21 0 0 Z " fill="currentColor" transform="translate(548,576)" opacity="0.652"/>
<path d="M0 0 C0.81 1.69 0.81 1.69 1 4 C-1.44 6.75 -1.44 6.75 -4 9 C-3.47 5.18 -2.5 2.94 0 0 Z " fill="currentColor" transform="translate(715,353)" opacity="0.848"/>
<path d="M0 0 C-0.33 0.99 -0.66 1.98 -1 3 C-3.07 3.73 -3.07 3.73 -5.56 4.19 C-6.39 4.35 -7.22 4.5 -8.07 4.67 C-9.02 4.83 -9.02 4.83 -10 5 C-10 4.34 -10 3.68 -10 3 C-8.71 2.5 -7.42 2 -6.12 1.5 C-5.05 1.08 -5.05 1.08 -3.95 0.66 C-2 0 -2 0 0 0 Z " fill="currentColor" transform="translate(1062,953)" opacity="0.665"/>
<path d="M0 0 C2.38 0.25 2.38 0.25 5 1 C6.31 3.06 6.31 3.06 7 5 C3.35 3.75 2.22 3.33 0 0 Z " fill="currentColor" transform="translate(677,530)" opacity="0.817"/>
<path d="M0 0 C0.33 0 0.66 0 1 0 C1 2.31 1 4.62 1 7 C1.66 7 2.32 7 3 7 C2.67 8.32 2.34 9.64 2 11 C1.34 10.67 0.68 10.34 0 10 C0 6.7 0 3.4 0 0 Z " fill="currentColor" transform="translate(190,902)" opacity="0.925"/>
<path d="M0 0 C0 3.17 -0.31 4.38 -2 7 C-4.12 8.25 -4.12 8.25 -6 9 C-4.47 5.56 -2.4 2.88 0 0 Z " fill="currentColor" transform="translate(626,689)" opacity="0.710"/>
<path d="M0 0 C0.33 0.99 0.66 1.98 1 3 C-0.65 4.65 -2.3 6.3 -4 8 C-4.66 7.67 -5.32 7.34 -6 7 C-4.02 4.69 -2.04 2.38 0 0 Z " fill="currentColor" transform="translate(703,642)" opacity="0.262"/>
<path d="M0 0 C0 3.6 -0.96 5.09 -3 8 C-3.66 8 -4.32 8 -5 8 C-3.81 4.62 -2.72 2.35 0 0 Z " fill="currentColor" transform="translate(506,629)" opacity="0.736"/>
<path d="M0 0 C0.66 0.33 1.32 0.66 2 1 C0.12 4.57 -1.17 6.55 -5 8 C-3.63 5.05 -2.01 2.56 0 0 Z " fill="currentColor" transform="translate(802,484)" opacity="0.725"/>
<path d="M0 0 C0 3.14 -0.35 4.4 -2 7 C-2.99 7.33 -3.98 7.66 -5 8 C-3.81 4.62 -2.72 2.35 0 0 Z " fill="currentColor" transform="translate(734,381)" opacity="0.287"/>
<path d="M0 0 C-3.44 2.29 -4.99 2.18 -9 2 C-9.33 1.34 -9.66 0.68 -10 0 C-6.72 -1.64 -3.57 -0.52 0 0 Z " fill="currentColor" transform="translate(816,303)" opacity="0.833"/>
</svg>
